
<svg xmlns="http://www.w3.org/2000/svg" viewBox="0 0 640 240" width="640" height="240">
    <g fill="#000" transform="translate(90 120)">
        <path d="M-20 -60 h40 v120 h-40 Z"/>
        <path d="M-60 -20 h120 v40 h-120 Z"/>
    </g>
    <circle cx="210" cy="120" r="20" fill="#000"/>
    <path fill="#000" d="
      M 270 60
      h 28
      a 48 48 0 0 1 0 120
      h -28
      Z
      M 298 88
      v 64
      a 20 20 0 0 0 0 -64
      Z"/>
    <g fill="#000">
        <path d="M380 60 h28 v120 h-28 Z"/>
        <path d="M380 60 h80 v28 h-80 Z"/>
        <path d="M380 106 h80 v28 h-60 Z"/>
        <path d="M380 152 h80 v28 h-80 Z"/>
    </g>
    <path fill="#000" d="
      M 480 60
      l 36 120
      h 28
      l 36 -120
      h -28
      l -22 78
      l -22 -78
      Z"/>
</svg>